<?xml version="1.0" encoding="UTF-8"?>
<svg id="Layer_1" data-name="Layer 1" xmlns="http://www.w3.org/2000/svg" viewBox="0 0 1000 1000">
  <defs>
    <style>
      .cls-1 {
        fill: #d2613c;
      }
    </style>
  </defs>
  <path class="cls-1" d="M686.38,691.29h-85.54c-10.11-63.16-64.97-111.57-130.92-111.57-.83,0-1.66.02-2.5.03v-84.88c.83-.02,1.66-.03,2.5-.03,58.1,0,112.71,22.62,153.78,63.7,36.07,36.07,57.89,82.59,62.68,132.74Z"/>
  <path class="cls-1" d="M467.42,494.86h-153.8v-16.42c0-39.96,32.4-72.34,72.34-72.34h81.44v-46.91c0-15.26,6.47-29.95,18.18-39.73,10.04-8.39,24.73-14.22,45.18-8.38,26.27,7.49,33.26,26.62,34.36,41.92.9,12.5-2.67,24.9-9.68,35.29-.31.49-.64.95-.99,1.44-7.41,10.56-19.56,16.77-32.47,16.7l-54.56-.33v88.76Z"/>
  <path class="cls-1" d="M313.62,579.76h153.8v16.42c0,39.96-32.4,72.34-72.34,72.34h-81.46v-88.76Z"/>
</svg>