<?xml version="1.0" encoding="UTF-8"?>
<svg id="Layer_1" data-name="Layer 1" xmlns="http://www.w3.org/2000/svg" viewBox="0 0 1000 1000">
  <defs>
    <style>
      .cls-1 {
        fill: #d8402f;
      }
    </style>
  </defs>
  <g>
    <path class="cls-1" d="M510.52,522.89h-75.98c6.12,26.62,40.5,33.25,56.37,11.2l13.89,13.39c-26.63,32.85-84.38,19.94-91.27-23.21-6.04-37.84,23.41-68.24,61.61-59.75,27.18,6.05,39.34,32.15,35.37,58.36ZM489.97,506.07c-5.58-32.81-49.68-32.28-55.43,0h55.43Z"/>
    <path class="cls-1" d="M694.89,463.28c71.53-6.72,78.27,98.62,9.15,102.57-68.9,3.94-75.16-96.37-9.15-102.57ZM698,481.97c-41.16,3.55-37.99,69.6,7.85,64.52,37.37-4.14,33.86-68.12-7.85-64.52Z"/>
    <path class="cls-1" d="M855.5,563.37h-21.18v-56.99c-.2-7.27-4.87-14.96-8.41-18.37-15.9-15.29-44.53-1.94-44.53,19.61v55.74h-21.18v-98.4h21.18v11.83c6.09-5.83,13.22-11.08,21.66-12.91,31.27-6.77,51.66,12.83,52.48,43.09.5,18.66.37,37.63-.03,56.39Z"/>
    <polygon class="cls-1" points="539.32 464.97 562.06 500.46 584.25 464.98 608.74 464.98 577.11 513.76 610.01 563.37 585.41 563.37 562.37 527.26 540.85 563.42 515.67 563.43 547.63 513.76 514.1 464.97 539.32 464.97"/>
    <path class="cls-1" d="M385.27,436.32v28.65h28.03v18.06h-28.03v47.02c0,.79.59,5.04.78,6.07,2.49,13.17,15.66,13.46,25.99,9.19l1.59,17.46c-17.19,6.85-39.82,2.7-46.59-16.36-.65-1.83-2.32-7.29-2.32-8.89v-101.21h20.55Z"/>
    <rect class="cls-1" x="619.09" y="464.97" width="20.55" height="98.4"/>
  </g>
  <g>
    <path class="cls-1" d="M185.86,445.86h46.97v51.19h-88.67v-9.48c0-23.02,18.69-41.71,41.71-41.71Z"/>
    <path class="cls-1" d="M144.15,545.99h88.67v9.48c0,23.02-18.69,41.71-41.71,41.71h-46.97v-51.19h0Z"/>
    <path class="cls-1" d="M322.94,533.76c-23.69-23.68-55.18-36.73-88.67-36.73-.48,0-.96.01-1.44.02v48.94c.48,0,.96-.02,1.44-.02,38.03,0,69.66,27.91,75.49,64.33h49.32c-2.76-28.91-15.34-55.74-36.14-76.54Z"/>
    <path class="cls-1" d="M232.82,445.86v-27.05c0-8.79,3.73-17.26,10.47-22.9,5.8-4.84,14.26-8.2,26.05-4.84,15.15,4.33,19.18,15.36,19.81,24.17.52,7.21-1.55,14.36-5.58,20.35-.19.28-.38.55-.57.83-4.27,6.09-11.28,9.67-18.72,9.62l-31.47-.19Z"/>
  </g>
</svg>